<mxfile host="app.diagrams.net" modified="2021-03-14T05:30:14.056Z" agent="5.0 (Macintosh; Intel Mac OS X 10_15_6) AppleWebKit/605.1.15 (KHTML, like Gecko) Version/14.0.3 Safari/605.1.15" etag="Px65n94Fz5c8W_CJbPY-" version="14.4.7" type="github">
  <diagram id="FAXyD-47zuVyecQbrcSH" name="Page-1">
    <mxGraphModel dx="445" dy="647" grid="1" gridSize="10" guides="1" tooltips="1" connect="1" arrows="1" fold="1" page="1" pageScale="1" pageWidth="827" pageHeight="1169" math="0" shadow="0">
      <root>
        <mxCell id="0" />
        <mxCell id="1" parent="0" />
        <mxCell id="AAXRU6-8ZTAmclravYHT-3" value="" style="edgeStyle=orthogonalEdgeStyle;rounded=0;orthogonalLoop=1;jettySize=auto;html=1;" edge="1" parent="1" source="AAXRU6-8ZTAmclravYHT-1" target="AAXRU6-8ZTAmclravYHT-2">
          <mxGeometry relative="1" as="geometry" />
        </mxCell>
        <mxCell id="AAXRU6-8ZTAmclravYHT-1" value="平台建模" style="rounded=1;whiteSpace=wrap;html=1;" vertex="1" parent="1">
          <mxGeometry x="90" y="360" width="120" height="60" as="geometry" />
        </mxCell>
        <mxCell id="AAXRU6-8ZTAmclravYHT-6" value="" style="edgeStyle=orthogonalEdgeStyle;rounded=0;orthogonalLoop=1;jettySize=auto;html=1;" edge="1" parent="1" source="AAXRU6-8ZTAmclravYHT-2" target="AAXRU6-8ZTAmclravYHT-5">
          <mxGeometry relative="1" as="geometry" />
        </mxCell>
        <mxCell id="AAXRU6-8ZTAmclravYHT-2" value="模型参数估计" style="rounded=1;whiteSpace=wrap;html=1;" vertex="1" parent="1">
          <mxGeometry x="270" y="360" width="120" height="60" as="geometry" />
        </mxCell>
        <mxCell id="AAXRU6-8ZTAmclravYHT-5" value="模型预测控制" style="whiteSpace=wrap;html=1;rounded=1;" vertex="1" parent="1">
          <mxGeometry x="450" y="360" width="120" height="60" as="geometry" />
        </mxCell>
        <mxCell id="AAXRU6-8ZTAmclravYHT-9" value="" style="edgeStyle=orthogonalEdgeStyle;rounded=0;orthogonalLoop=1;jettySize=auto;html=1;" edge="1" parent="1" source="AAXRU6-8ZTAmclravYHT-7" target="AAXRU6-8ZTAmclravYHT-8">
          <mxGeometry relative="1" as="geometry" />
        </mxCell>
        <mxCell id="AAXRU6-8ZTAmclravYHT-7" value="重构规划" style="rounded=1;whiteSpace=wrap;html=1;" vertex="1" parent="1">
          <mxGeometry x="250" y="550" width="120" height="60" as="geometry" />
        </mxCell>
        <mxCell id="AAXRU6-8ZTAmclravYHT-8" value="路径规划" style="whiteSpace=wrap;html=1;rounded=1;" vertex="1" parent="1">
          <mxGeometry x="430" y="550" width="120" height="60" as="geometry" />
        </mxCell>
        <mxCell id="AAXRU6-8ZTAmclravYHT-15" value="" style="edgeStyle=orthogonalEdgeStyle;rounded=0;orthogonalLoop=1;jettySize=auto;html=1;" edge="1" parent="1" source="AAXRU6-8ZTAmclravYHT-10" target="AAXRU6-8ZTAmclravYHT-11">
          <mxGeometry relative="1" as="geometry" />
        </mxCell>
        <mxCell id="AAXRU6-8ZTAmclravYHT-10" value="模型预测控制" style="rounded=1;whiteSpace=wrap;html=1;" vertex="1" parent="1">
          <mxGeometry x="280" y="720" width="120" height="60" as="geometry" />
        </mxCell>
        <mxCell id="AAXRU6-8ZTAmclravYHT-12" value="" style="edgeStyle=orthogonalEdgeStyle;rounded=0;orthogonalLoop=1;jettySize=auto;html=1;entryX=0;entryY=0.25;entryDx=0;entryDy=0;exitX=1;exitY=0.25;exitDx=0;exitDy=0;" edge="1" parent="1" source="AAXRU6-8ZTAmclravYHT-11" target="AAXRU6-8ZTAmclravYHT-10">
          <mxGeometry relative="1" as="geometry">
            <Array as="points">
              <mxPoint x="600" y="735" />
              <mxPoint x="600" y="700" />
              <mxPoint x="260" y="700" />
              <mxPoint x="260" y="735" />
            </Array>
          </mxGeometry>
        </mxCell>
        <mxCell id="AAXRU6-8ZTAmclravYHT-11" value="受控模型" style="rounded=1;whiteSpace=wrap;html=1;" vertex="1" parent="1">
          <mxGeometry x="460" y="720" width="120" height="60" as="geometry" />
        </mxCell>
        <mxCell id="AAXRU6-8ZTAmclravYHT-13" value="" style="endArrow=classic;html=1;entryX=0;entryY=0.75;entryDx=0;entryDy=0;" edge="1" parent="1" target="AAXRU6-8ZTAmclravYHT-10">
          <mxGeometry width="50" height="50" relative="1" as="geometry">
            <mxPoint x="230" y="765" as="sourcePoint" />
            <mxPoint x="370" y="780" as="targetPoint" />
          </mxGeometry>
        </mxCell>
        <mxCell id="AAXRU6-8ZTAmclravYHT-14" value="参考输入" style="text;html=1;align=center;verticalAlign=middle;resizable=0;points=[];autosize=1;" vertex="1" parent="1">
          <mxGeometry x="220" y="770" width="60" height="20" as="geometry" />
        </mxCell>
        <mxCell id="AAXRU6-8ZTAmclravYHT-16" value="" style="endArrow=classic;html=1;exitX=1;exitY=0.75;exitDx=0;exitDy=0;" edge="1" parent="1" source="AAXRU6-8ZTAmclravYHT-11">
          <mxGeometry width="50" height="50" relative="1" as="geometry">
            <mxPoint x="600" y="760" as="sourcePoint" />
            <mxPoint x="650" y="765" as="targetPoint" />
            <Array as="points" />
          </mxGeometry>
        </mxCell>
        <mxCell id="AAXRU6-8ZTAmclravYHT-17" value="受控输出" style="edgeLabel;html=1;align=center;verticalAlign=middle;resizable=0;points=[];" vertex="1" connectable="0" parent="AAXRU6-8ZTAmclravYHT-16">
          <mxGeometry x="0.04" y="1" relative="1" as="geometry">
            <mxPoint x="-6" y="16" as="offset" />
          </mxGeometry>
        </mxCell>
      </root>
    </mxGraphModel>
  </diagram>
</mxfile>
